HIERARCHY
ROOT Hips
{
	OFFSET -0.001795 -0.223333 0.028219
	CHANNELS 6 Xposition Yposition Zposition Zrotation Yrotation Xrotation 
	JOINT LeftUpLeg
	{
		OFFSET 0.069520 -0.091406 -0.006815
		CHANNELS 3 Zrotation Yrotation Xrotation
		JOINT LeftLeg
		{
			OFFSET 0.034277 -0.375199 -0.004496
			CHANNELS 3 Zrotation Yrotation Xrotation
			JOINT LeftFoot
			{
				OFFSET -0.013596 -0.397961 -0.043693
				CHANNELS 3 Zrotation Yrotation Xrotation
				JOINT LeftToe
				{
					OFFSET 0.026358 -0.055791 0.119288
					CHANNELS 3 Zrotation Yrotation Xrotation
					End Site
					{
						OFFSET 0.000000 0.000000 0.000000
					}
				}
			}
		}
	}
	JOINT RightUpLeg
	{
		OFFSET -0.067670 -0.090522 -0.004320
		CHANNELS 3 Zrotation Yrotation Xrotation
		JOINT RightLeg
		{
			OFFSET -0.038290 -0.382569 -0.008850
			CHANNELS 3 Zrotation Yrotation Xrotation
			JOINT RightFoot
			{
				OFFSET 0.015774 -0.398415 -0.042312
				CHANNELS 3 Zrotation Yrotation Xrotation
				JOINT RightToe
				{
					OFFSET -0.025372 -0.048144 0.123348
					CHANNELS 3 Zrotation Yrotation Xrotation
					End Site
					{
						OFFSET 0.000000 0.000000 0.000000
					}
				}
			}
		}
	}
	JOINT Spine
	{
		OFFSET -0.002533 0.108963 -0.026696
		CHANNELS 3 Zrotation Yrotation Xrotation
		JOINT Spine1
		{
			OFFSET 0.005487 0.135180 0.001092
			CHANNELS 3 Zrotation Yrotation Xrotation
			JOINT Spine2
			{
				OFFSET 0.001457 0.052922 0.025425
				CHANNELS 3 Zrotation Yrotation Xrotation
				JOINT Neck
				{
					OFFSET -0.002778 0.213870 -0.042857
					CHANNELS 3 Zrotation Yrotation Xrotation
					JOINT Head
					{
						OFFSET 0.005152 0.064970 0.051349
						CHANNELS 3 Zrotation Yrotation Xrotation
						End Site
						{
							OFFSET 0.000000 0.000000 0.000000
						}
					}
				}
				JOINT LeftShoulder
				{
					OFFSET 0.078845 0.121749 -0.034090
					CHANNELS 3 Zrotation Yrotation Xrotation
					JOINT LeftArm
					{
						OFFSET 0.090977 0.030469 -0.008868
						CHANNELS 3 Zrotation Yrotation Xrotation
						JOINT LeftForeArm
						{
							OFFSET 0.259612 -0.012772 -0.027456
							CHANNELS 3 Zrotation Yrotation Xrotation
							JOINT LeftHand
							{
								OFFSET 0.249234 0.008986 -0.001171
								CHANNELS 3 Zrotation Yrotation Xrotation
								End Site
								{
									OFFSET 0.000000 0.000000 0.000000
								}
							}
						}
					}
				}
				JOINT RightShoulder
				{
					OFFSET -0.081759 0.118833 -0.038615
					CHANNELS 3 Zrotation Yrotation Xrotation
					JOINT RightArm
					{
						OFFSET -0.096012 0.032551 -0.009143
						CHANNELS 3 Zrotation Yrotation Xrotation
						JOINT RightForeArm
						{
							OFFSET -0.253742 -0.013329 -0.021401
							CHANNELS 3 Zrotation Yrotation Xrotation
							JOINT RightHand
							{
								OFFSET -0.255298 0.007772 -0.005559
								CHANNELS 3 Zrotation Yrotation Xrotation
								End Site
								{
									OFFSET 0.000000 0.000000 0.000000
								}
							}
						}
					}
				}
			}
		}
	}
}
MOTION
Frames: 17
Frame Time: 0.050000
0.064362 0.947944 -0.051009 4.397685 -8.510460 8.435636 5.637977 -0.475779 -9.556767 -5.812433 0.818072 3.119274 11.868224 22.424378 16.070589 0.000000 0.000000 0.000000 -16.173827 0.450635 -24.885392 5.559225 -0.405620 16.501024 1.954567 -1.620648 10.894655 0.000000 0.000000 0.000000 18.532771 -4.595030 22.068870 1.076663 -0.107178 -16.144987 6.304778 0.462392 22.484552 15.693130 -11.973987 -9.128997 0.000000 0.000000 0.000000 12.658518 -16.511243 3.948975 -22.094736 -32.602654 1.812967 94.761864 -78.619369 -75.991330 0.000000 0.000000 0.000000 14.417518 15.712088 5.920975 38.109117 45.669392 8.661547 7.377258 45.757805 4.594921 0.000000 0.000000 0.000000 
0.065245 0.948161 -0.051490 4.249637 -8.542681 8.433798 5.687582 -0.474946 -9.711031 -5.832445 0.825247 3.232265 11.980377 22.561113 16.262679 0.000000 0.000000 0.000000 -16.118179 0.458848 -25.197403 5.769915 -0.446891 16.917256 1.892243 -1.829982 11.059725 0.000000 0.000000 0.000000 18.539088 -4.664306 22.478004 1.067419 -0.097172 -16.407284 6.446174 0.525135 22.685536 15.831515 -11.961830 -9.627840 0.000000 0.000000 0.000000 13.051030 -16.580929 3.899844 -21.677432 -32.885428 1.778078 87.738012 -79.441787 -70.107935 0.000000 0.000000 0.000000 15.122638 16.060157 6.141190 38.293005 46.159098 8.889200 6.394742 45.957846 4.249257 0.000000 0.000000 0.000000 
0.066265 0.948026 -0.051677 4.096437 -8.571255 8.470708 5.715222 -0.472052 -9.715447 -6.025830 0.857528 3.243539 12.205467 22.870582 16.385193 0.000000 0.000000 0.000000 -16.173790 0.453722 -25.392382 6.086783 -0.519078 16.947534 1.961998 -1.866251 11.423995 0.000000 0.000000 0.000000 18.617328 -4.735991 22.795844 0.988661 -0.067701 -16.637386 6.647951 0.644218 22.743217 16.067165 -12.027970 -10.082791 0.000000 0.000000 0.000000 13.415486 -16.709650 3.877904 -21.655964 -33.108209 1.805994 80.192494 -80.167114 -63.724479 0.000000 0.000000 0.000000 15.828617 16.299465 6.320347 38.531801 46.617123 9.144627 5.226705 45.615035 3.770150 0.000000 0.000000 0.000000 
0.067340 0.947715 -0.051534 3.856904 -8.776311 8.359031 5.699094 -0.459086 -9.451433 -6.028405 0.859599 3.159799 12.493743 23.276708 16.346004 0.000000 0.000000 0.000000 -16.139748 0.474434 -25.532846 6.450271 -0.591626 17.205650 1.948832 -2.072053 11.748711 0.000000 0.000000 0.000000 18.741788 -4.796722 23.125258 1.244949 -0.156021 -16.455555 6.580675 0.817294 22.510354 16.111453 -12.026834 -10.085229 0.000000 0.000000 0.000000 13.804507 -16.729189 3.831318 -21.780029 -33.200641 1.857621 72.467728 -80.739565 -57.100082 0.000000 0.000000 0.000000 15.991389 16.820708 6.605838 39.027469 47.071315 9.520766 3.981430 45.279503 3.252741 0.000000 0.000000 0.000000 
0.068529 0.947593 -0.051009 3.667122 -9.079346 8.378461 5.765149 -0.439074 -9.125995 -5.997872 0.850669 2.837501 12.536652 23.336967 16.195715 0.000000 0.000000 0.000000 -15.984625 0.527362 -25.533717 6.582998 -0.608013 17.106830 2.020517 -2.125507 12.075357 0.000000 0.000000 0.000000 18.902096 -4.844401 23.345290 1.283220 -0.173647 -16.482381 6.612004 0.839314 22.375246 16.000769 -11.834213 -10.412230 0.000000 0.000000 0.000000 14.047766 -16.671632 3.774786 -21.998838 -33.035988 1.901917 66.617015 -81.337974 -52.160937 0.000000 0.000000 0.000000 15.933592 16.966475 6.633837 40.143287 47.446545 10.090119 2.862102 44.516729 2.745568 0.000000 0.000000 0.000000 
0.069858 0.947316 -0.050171 3.603819 -9.501403 8.368579 5.654237 -0.430021 -8.794555 -5.939354 0.844226 2.683909 12.666183 23.551864 15.802207 0.000000 0.000000 0.000000 -16.030192 0.561838 -25.454311 6.673230 -0.610518 16.936809 1.990277 -2.353645 12.316713 0.000000 0.000000 0.000000 18.827106 -4.862034 23.769399 1.546862 -0.252606 -16.649973 6.479313 0.551487 22.346440 15.538604 -11.438903 -10.642463 0.000000 0.000000 0.000000 14.046877 -16.333368 3.658336 -22.802709 -32.479274 1.996694 57.182143 -82.451282 -44.131007 0.000000 0.000000 0.000000 15.557496 17.434818 6.727196 41.486914 47.964329 10.786146 2.157669 43.702149 2.384544 0.000000 0.000000 0.000000 
0.071310 0.947165 -0.049077 3.545697 -10.041071 8.441358 5.584027 -0.417371 -8.465604 -5.902134 0.837647 2.347106 12.851498 23.802236 15.722983 0.000000 0.000000 0.000000 -15.840484 0.641558 -25.543670 6.274374 -0.498720 16.597863 2.209670 -2.085454 12.496247 0.000000 0.000000 0.000000 18.861315 -4.868022 24.016437 1.487690 -0.247539 -16.657623 6.641319 0.173550 22.200877 15.229285 -11.089352 -11.242229 0.000000 0.000000 0.000000 13.945885 -16.276762 3.615378 -23.935961 -31.300336 2.046038 51.573309 -83.392313 -39.326055 0.000000 0.000000 0.000000 15.754860 17.778869 6.737532 42.048141 48.167575 11.094638 2.343981 43.245848 2.365473 0.000000 0.000000 0.000000 
0.072837 0.947103 -0.047891 3.536146 -10.513759 8.366389 5.472349 -0.404239 -8.078318 -5.904337 0.838754 2.077958 12.977082 23.964960 15.703595 0.000000 0.000000 0.000000 -15.609778 0.714370 -25.436542 5.724304 -0.361018 16.209288 2.617212 -1.463308 12.707354 0.000000 0.000000 0.000000 18.681467 -4.833465 24.349973 1.890621 -0.376289 -16.607091 6.414447 -0.008812 22.132484 14.635553 -10.574196 -11.672234 0.000000 0.000000 0.000000 13.618171 -16.175250 3.615753 -25.165038 -30.230592 2.066464 41.432602 -84.206035 -30.306105 0.000000 0.000000 0.000000 15.938215 18.087025 6.794313 42.419957 48.421294 11.353549 2.703535 43.097198 2.453888 0.000000 0.000000 0.000000 
0.074310 0.947244 -0.046713 3.545075 -11.173216 8.478360 5.231520 -0.408119 -7.950258 -5.735831 0.815988 1.836132 13.075775 24.057714 15.782818 0.000000 0.000000 0.000000 -15.408868 0.805476 -25.433792 5.291400 -0.246857 15.858759 2.816334 -1.216285 12.798923 0.000000 0.000000 0.000000 18.664803 -4.796938 24.491718 1.900587 -0.397338 -16.482764 6.252311 -0.234519 22.316295 14.461056 -10.309767 -12.500479 0.000000 0.000000 0.000000 13.511133 -16.163358 3.584057 -26.713892 -28.954130 2.079249 32.992337 -85.053509 -22.613523 0.000000 0.000000 0.000000 15.880532 18.343238 6.779578 42.608907 48.596373 11.472200 2.979198 43.695809 2.546098 0.000000 0.000000 0.000000 
0.075649 0.947582 -0.045763 3.425086 -11.791276 8.612659 5.151789 -0.403360 -7.844915 -5.665064 0.808758 1.630781 13.138650 24.115547 15.765449 0.000000 0.000000 0.000000 -14.957612 0.924823 -25.525469 4.528077 -0.065282 15.640044 3.213806 -0.693610 13.104095 0.000000 0.000000 0.000000 18.626670 -4.791112 24.813154 1.948275 -0.426221 -16.412579 6.095199 -0.329344 22.204231 14.542498 -10.291694 -12.861991 0.000000 0.000000 0.000000 12.825786 -16.178141 3.683102 -28.025086 -27.736819 2.006511 14.234242 -86.290207 -5.265022 0.000000 0.000000 0.000000 15.874669 18.262640 6.632609 42.852778 48.815816 11.656004 4.130689 44.341650 2.995634 0.000000 0.000000 0.000000 
0.076801 0.947982 -0.045101 3.364818 -12.359386 8.866352 5.157139 -0.401936 -7.943795 -5.639932 0.808493 1.460242 13.218680 24.167764 15.931398 0.000000 0.000000 0.000000 -14.734894 1.017201 -25.833173 4.237015 0.009886 15.456550 3.401955 -0.528813 13.332467 0.000000 0.000000 0.000000 18.585615 -4.760265 24.911012 2.104936 -0.487363 -16.301876 5.625363 -0.297111 22.316576 14.772727 -10.342069 -13.408233 0.000000 0.000000 0.000000 12.592363 -16.379716 3.758400 -29.489275 -26.659284 1.957450 -12.108596 -86.101774 19.540489 0.000000 0.000000 0.000000 16.017815 18.174701 6.533262 42.611620 49.102371 11.662504 5.329385 45.428353 3.539500 0.000000 0.000000 0.000000 
0.077838 0.948524 -0.044693 3.280198 -12.739123 9.136231 5.276005 -0.399897 -8.183549 -5.605832 0.807017 1.413893 13.259210 24.161868 16.142307 0.000000 0.000000 0.000000 -14.477015 1.097416 -26.071142 3.798547 0.109564 15.326489 3.740215 -0.002196 13.478034 0.000000 0.000000 0.000000 18.717735 -4.805351 25.148515 1.889873 -0.424636 -16.418008 5.406927 -0.383332 22.383805 15.335012 -10.531773 -14.308088 0.000000 0.000000 0.000000 12.125196 -16.406876 3.835928 -30.714249 -25.834189 1.913769 -31.384776 -85.122270 37.276277 0.000000 0.000000 0.000000 15.782282 17.839420 6.287180 42.868718 49.554158 11.911065 7.087577 46.149944 4.298663 0.000000 0.000000 0.000000 
0.078863 0.948761 -0.044457 3.200899 -13.033619 9.310917 5.372405 -0.397181 -8.395128 -5.520103 0.797607 1.420176 13.264897 24.110592 16.341303 0.000000 0.000000 0.000000 -14.335832 1.153323 -26.314041 3.536980 0.169954 15.243272 3.947782 0.372995 13.462025 0.000000 0.000000 0.000000 18.567477 -4.804846 25.483888 1.839093 -0.415992 -16.388366 5.174615 -0.256563 22.418369 15.917757 -10.929448 -14.279030 0.000000 0.000000 0.000000 11.869623 -16.752402 3.973495 -31.514405 -25.185340 1.827176 -37.537672 -83.912186 42.235238 0.000000 0.000000 0.000000 15.846556 17.565321 6.155204 42.367190 50.006398 11.875347 8.795483 47.532912 5.179183 0.000000 0.000000 0.000000 
0.079924 0.948969 -0.044240 3.075021 -13.440229 9.601204 5.531759 -0.390331 -8.688332 -5.379412 0.782044 1.466254 13.385834 24.177962 16.762635 0.000000 0.000000 0.000000 -14.116937 1.236438 -26.625225 3.124403 0.263589 15.138681 4.162056 0.737660 13.457172 0.000000 0.000000 0.000000 18.683634 -4.835305 25.667817 1.415801 -0.293358 -16.574113 5.307550 0.095719 22.796616 16.808109 -11.451101 -14.684041 0.000000 0.000000 0.000000 11.486126 -16.752428 4.048369 -31.828764 -24.967921 1.757595 -41.405517 -82.599950 44.822628 0.000000 0.000000 0.000000 16.057627 17.112224 5.973227 41.916605 50.279110 11.766061 10.306616 48.470148 5.988449 0.000000 0.000000 0.000000 
0.081108 0.949108 -0.043878 3.108056 -13.753241 9.786027 5.552841 -0.395332 -9.046506 -5.369621 0.789012 1.641186 13.431608 24.125618 17.265985 0.000000 0.000000 0.000000 -14.185195 1.272101 -26.980337 2.999243 0.296597 15.112163 4.196299 0.656916 13.643627 0.000000 0.000000 0.000000 18.576257 -4.844621 26.051807 1.429647 -0.291650 -16.828004 5.135141 0.589389 23.091450 17.723910 -11.938129 -15.178987 0.000000 0.000000 0.000000 11.325768 -17.171054 4.204431 -31.718550 -24.385417 1.536508 -39.820011 -81.519591 42.430690 0.000000 0.000000 0.000000 16.272779 16.861739 5.950426 41.772894 50.539102 11.797575 11.177206 49.389542 6.578049 0.000000 0.000000 0.000000 
0.082433 0.949268 -0.043237 3.120002 -14.150781 10.027447 5.474887 -0.407069 -9.406226 -5.320157 0.793263 1.903800 13.452354 24.114705 17.280249 0.000000 0.000000 0.000000 -14.145721 1.334972 -27.392354 2.894900 0.341879 15.344943 4.099191 0.719360 13.127363 0.000000 0.000000 0.000000 18.451622 -4.817673 26.243110 1.202198 -0.226034 -17.037713 5.352882 0.930583 23.310537 18.331840 -12.270285 -15.455564 0.000000 0.000000 0.000000 11.062131 -17.103877 4.243545 -31.521017 -24.075502 1.391370 -44.680051 -80.710583 46.182190 0.000000 0.000000 0.000000 16.417870 16.673197 5.893943 41.591976 50.408384 11.662623 12.364609 50.334705 7.297526 0.000000 0.000000 0.000000 
0.083793 0.949304 -0.042307 3.260112 -14.237542 10.171703 5.374463 -0.419634 -9.525067 -5.457773 0.816339 1.887435 13.378500 23.985751 17.362430 0.000000 0.000000 0.000000 -14.377876 1.322714 -27.602656 2.800837 0.367142 15.428819 4.110099 0.701005 13.189696 0.000000 0.000000 0.000000 18.439056 -4.815818 26.249199 1.259118 -0.235746 -17.236568 5.323782 1.253041 23.193964 18.630973 -12.387987 -15.648282 0.000000 0.000000 0.000000 10.958678 -17.197461 4.310208 -30.765382 -23.762462 1.213815 -44.718435 -80.411875 45.815338 0.000000 0.000000 0.000000 16.875121 16.564092 5.913665 41.934273 49.951272 11.669408 13.339081 50.266358 7.774638 0.000000 0.000000 0.000000 
